<?xml version="1.0" encoding="utf-8"?>
<!-- Generator: Adobe Illustrator 24.2.1, SVG Export Plug-In . SVG Version: 6.00 Build 0)  -->
<svg version="1.1" id="Layer_1" xmlns="http://www.w3.org/2000/svg" xmlns:xlink="http://www.w3.org/1999/xlink" x="0px" y="0px"
	 viewBox="0 0 512 512" style="enable-background:new 0 0 512 512;" xml:space="preserve">
<style type="text/css">
	.st0{fill:none;stroke:#000000;stroke-width:20;stroke-miterlimit:10;}
</style>
<g id="Graduation">
	<polygon class="st0" points="480.3,406.2 480.3,208.5 448.4,224.4 448.4,406.2 427.2,460.8 501.6,460.8 	"/>
	<path class="st0" d="M218.1,311L87.3,245.6v65.3c0,43.9,71.4,79.6,159.4,79.6S406,354.9,406,310.9v-65.3l-131,65.4
		C252.7,319.9,240.5,319.9,218.1,311z"/>
	<path class="st0" d="M260.9,282.5l226.4-113.3c7.9-3.9,7.9-10.3,0-14.2L260.9,41.8c-7.9-3.9-20.6-3.9-28.5,0L5.9,155
		c-7.9,3.9-7.9,10.3,0,14.2l226.4,113.3C240.2,286.4,253,286.4,260.9,282.5z"/>
</g>
</svg>
